<svg width="650" height="650" viewBox="0 0 650 650" fill="none" xmlns="http://www.w3.org/2000/svg">
<g clip-path="url(#clip0_21442_366)">
<path d="M86.4979 386.659C86.7305 386.659 88.9771 390.129 91.4891 394.369C97.803 405.025 102.611 411.24 111.634 420.406C135.824 444.981 172.541 459.795 215.85 462.451C223.926 462.946 230.358 463.898 235.889 465.416C246.777 468.405 263.57 469.829 273.739 468.626C279.947 467.891 282.957 466.976 288.853 464.032C295.931 460.497 296.364 460.396 300.099 461.395C302.236 461.966 305.763 462.434 307.937 462.434C310.11 462.434 311.882 462.731 311.876 463.094C311.852 464.318 298.285 479.078 292.036 484.678C278.117 497.152 266.613 504.711 248.45 513.32C226.694 523.632 224.249 524.912 219.895 528.267C213.645 533.084 213.398 533.714 215.409 539.715C218.211 548.069 219.401 548.81 236.996 553.161C276.786 563.001 295.339 574.05 288.49 583.829C286.347 586.889 281.13 586.418 270.856 582.238C263.223 579.132 246.695 573.453 245.286 573.452C245.011 573.452 246.701 575.603 249.041 578.233C254.489 584.352 258.957 591.746 259.599 595.703C259.998 598.16 259.694 599.214 258.139 600.769C254.901 604.008 251.137 602.813 238.723 594.608C215.713 579.399 193.984 571.253 168.059 568.12C164.056 567.636 159.703 566.81 158.387 566.286C153.591 564.376 154.099 558.565 159.295 555.914C163.562 553.737 166.767 553.16 181.261 551.963L193.115 550.984L186.386 537.543C182.279 529.34 178.401 522.846 176.435 520.881C174.664 519.11 168.039 514.291 161.712 510.172C119.412 482.639 102.062 462.076 92.0868 427.655C89.3176 418.097 87.4929 407.225 86.6814 395.444C86.3485 390.614 86.2666 386.663 86.4979 386.659Z" fill="white"/>
<path d="M377.517 438.927C384.129 445.926 393.651 462.217 399.067 475.798C402.091 483.378 402.407 486.353 400.369 488.045C398.254 489.8 395.526 488.41 380.994 478.174C367.267 468.505 360.224 462.08 353.114 452.742L348.754 447.015L354.115 446.407C360.266 445.71 366.721 442.54 371.02 438.104L373.916 435.115L377.517 438.927Z" fill="white"/>
<path d="M268.566 365.48C274.951 364.32 295.692 365.121 301.757 366.763C310.193 369.047 322.347 375.357 329.682 381.264C340.328 389.836 353.442 406.663 359.565 419.606C362.833 426.513 362.845 429.866 359.616 433.479C357.513 435.832 356.349 436.336 352.209 436.68C342.759 437.463 334.457 431.765 321.692 415.736C312.808 404.58 307.969 399.968 301.562 396.553C295.323 393.228 290.894 392.87 288.516 395.497C286.212 398.044 287.598 401.303 292.512 404.886C302.779 412.373 305.029 414.431 309.655 420.577C315.481 428.317 319.577 436.629 320.351 442.281C320.845 445.884 320.633 446.618 318.38 449.119C315.076 452.786 310.687 453.532 305.058 451.383C302.071 450.242 298.626 447.518 292.925 441.793C281.608 430.428 271.203 425.661 265.65 429.299C261.047 432.315 262.975 434.871 275.094 441.816C281.735 445.622 283.797 447.66 284.957 451.559C285.441 453.185 284.848 453.788 280.864 455.719C269.455 461.251 248.871 460.867 229.542 454.763C218.166 451.171 214.963 446.555 214.993 433.798C215.02 422.006 220.55 403.211 227.373 391.727C235.587 377.9 249.698 368.909 268.566 365.48Z" fill="white"/>
<path fill-rule="evenodd" clip-rule="evenodd" d="M398.523 126.241C407.245 123.515 417.266 125.322 423.632 130.771C433.57 139.277 435.462 158 427.718 171.213C424.956 175.926 418.544 181.948 414.484 183.645C412.818 184.341 411.454 185.047 411.453 185.214C411.453 185.38 413.799 190.43 416.666 196.436C421.48 206.516 425.16 217.338 424.475 219.395C424.174 220.295 418.502 222.849 401.981 229.526L392.069 233.532L391.869 238.506C391.528 246.999 392.039 252.832 393.965 262.425C396.32 274.157 397.167 300.361 395.622 313.654C394.333 324.74 389.913 342.587 385.506 354.499C380.034 369.288 367.699 392.395 361.883 398.747L360.094 400.704L356.151 394.782C344.747 377.66 331.684 366.299 315.152 359.125C307.826 355.946 309.735 358.001 276.282 317.26C261.521 299.284 259.4 297.63 253.412 299.424C251.434 300.017 248.268 302.05 246.376 303.941C243.208 307.11 242.97 307.681 243.368 311.206C243.745 314.552 245.364 316.962 256.23 330.361C263.067 338.791 270.302 347.572 272.305 349.874C275.383 353.41 275.677 354.059 274.2 354.059C273.238 354.059 267.624 355.274 261.724 356.758L250.996 359.459L238.488 355.317C221.413 349.662 216.018 347.099 212.155 342.804C207.137 337.224 206.806 331.712 210.615 317.107C213.528 305.939 212.534 301.168 207.554 302.417C201.356 303.973 193.939 333.111 197.396 342.327C200.42 350.389 209.45 357.72 223.201 363.278C230.795 366.347 231.591 366.876 230.609 368.201C218.542 384.464 214.128 392.147 209.875 404.281C205.33 417.249 204.067 424.642 204.037 438.424C204.022 445.329 203.77 450.98 203.475 450.98C200.886 450.979 181.736 446.954 174.082 444.801C141.631 435.672 117.767 418.686 105.799 396.197C98.1585 381.837 94.8989 366.992 94.9015 346.569C94.9069 311.748 104.585 278.03 122.197 251.475C132.717 235.616 147.932 221.732 171.355 206.618C178.274 202.152 178.478 201.917 182.525 193.699C184.793 189.096 187.249 183.246 187.985 180.702L189.322 176.077H183.709C180.622 176.077 176.094 175.615 173.646 175.05L169.196 174.022L175.564 167.34C183.597 158.91 191.446 148.489 197.871 137.723C200.625 133.108 203.174 129.149 203.534 128.926C203.895 128.704 206.317 129.25 208.918 130.139C214.408 132.016 245.357 141.208 250.873 142.6L254.618 143.544V148.171C254.618 154.359 256.699 162 260.146 168.469C269.106 185.279 290.11 193.915 309.656 188.824C323.195 185.298 334.791 174.65 341.422 159.657C342.674 156.825 344.571 153.56 345.636 152.401C350.667 146.928 361.312 145.408 370.509 148.849C373.226 149.865 375.573 150.559 375.722 150.391C375.872 150.219 377.051 147.826 378.343 145.069C382.543 136.112 390.4 128.782 398.523 126.241ZM337.834 209.559C336.575 209.559 336.426 210.132 336.906 213.132C338.408 222.527 344.611 229.817 352.63 231.611C356.654 232.512 358.58 232.449 364.64 231.222C371.716 229.788 397.769 221.133 397.081 220.445C396.888 220.252 393.6 219.528 389.774 218.836C385.947 218.143 373.033 215.772 361.075 213.567C349.117 211.362 338.658 209.559 337.834 209.559ZM375.976 165.174C371.012 162.695 364.74 161.508 362.112 162.55C359.457 163.603 353.854 169.623 349.759 175.824C345.075 182.915 337.685 196.919 338.339 197.461C338.772 197.816 358.206 201.537 390.939 207.53C400.736 209.324 409.004 210.537 409.314 210.228C410.13 209.412 401.742 192.237 397.313 185.655C392.018 177.784 382.032 168.2 375.976 165.174ZM407.315 136.626C396.96 136.626 388.566 145.02 388.566 155.375C388.566 165.731 396.96 174.126 407.315 174.126C417.671 174.126 426.065 165.731 426.065 155.375C426.065 145.02 417.67 136.626 407.315 136.626Z" fill="white"/>
<path d="M492.294 128.569C494.597 127.228 496.565 127.381 513.526 130.226C522.081 131.66 553.861 136.826 584.149 141.705C614.436 146.584 640.492 150.989 642.052 151.491C645.575 152.627 649.35 156.983 649.35 159.914C649.348 163.593 594.942 380.209 593.445 382.502C591.666 385.217 588.475 386.659 584.247 386.659C581.184 386.659 568.29 383.88 486.346 365.561C471.081 362.148 458.099 359.354 457.498 359.351C456.896 359.348 454.517 360.797 452.212 362.57C446.668 366.835 435.19 372.177 426.682 374.453C421.325 375.886 416.93 376.314 406.607 376.408C399.338 376.473 392.315 376.225 391.002 375.858L388.613 375.189L390.285 372.334C393.018 367.661 398.1 354.364 400.431 345.778C404.919 329.251 407.048 312.733 407.048 294.425V283.438L410.487 277.551C426.608 249.947 451.238 233.44 479.959 230.991L486.346 230.447L486.345 233.439C486.344 240.767 477.742 253.199 465.731 263.23C459.801 268.184 458.029 270.209 457.355 272.798C450.508 299.143 440.28 339.892 440.196 341.163C440.103 342.606 442.328 343.262 458.592 346.579C468.769 348.655 481.648 351.385 487.213 352.645C543.174 365.316 581.561 373.606 582.532 373.229C584.011 372.652 635.76 164.791 634.686 163.745C633.549 162.67 501.004 140.87 500.204 141.627C499.829 141.988 495.189 159.45 489.895 180.429C484.6 201.407 480.15 218.669 480.003 218.795C479.431 219.269 467.385 221.718 467.083 221.422C466.543 220.889 488.215 134.39 489.525 131.846C490.2 130.537 491.446 129.063 492.294 128.569Z" fill="white"/>
<path d="M60.9582 191.057C72.4133 186.227 87.903 206.747 102.183 245.67L107.449 260.024L101.771 271.578C95.6608 284.01 92.0919 293.859 88.646 307.801C84.7533 323.55 84.1442 329.031 84.1345 348.331L84.1251 366.834L78.3381 360.667C45.0018 325.14 7.50783 270.828 2.16927 250.335C-1.4035 236.616 2.65515 231.284 13.0714 236.01C18.1678 238.323 27.1781 245.57 31.7562 251.038C33.7862 253.462 35.5852 255.309 35.7526 255.142C35.9208 254.974 34.5066 251.682 32.6115 247.827C27.9558 238.36 23.9872 226.208 23.2751 219.242C21.9447 206.222 28.4858 202.408 39.7507 209.637C44.6232 212.764 53.0116 221.457 56.8205 227.331C61.7032 234.858 61.8023 234.973 61.2226 232.468C60.9433 231.256 59.9314 226.895 58.9763 222.775C56.4274 211.79 55.7821 199.41 57.5406 195.227C58.308 193.402 59.8462 191.526 60.9582 191.057Z" fill="white"/>
<path fill-rule="evenodd" clip-rule="evenodd" d="M579.961 315.291C583.733 315.291 584.724 315.69 587.268 318.234C588.888 319.854 590.477 322.235 590.802 323.527C592.748 331.282 585.744 339.961 577.54 339.961C570.835 339.961 566.526 335.833 566.529 329.412C566.53 324.341 568.784 319.842 572.604 317.291C574.71 315.883 576.892 315.291 579.961 315.291ZM580.159 325.525C578.458 323.824 577.795 323.759 576.395 325.159C573.785 327.769 576.51 331.629 579.59 329.686C581.594 328.423 581.769 327.135 580.159 325.525Z" fill="white"/>
<path d="M584.908 286.887C588.562 284.482 592.942 286.446 592.983 290.507C593.002 292.379 589.169 296.562 572.938 312.374C561.903 323.126 552.212 332.098 551.402 332.317C548.684 333.043 545.84 330.865 545.545 327.834C545.289 325.19 546.525 323.769 563.928 306.708C574.189 296.649 583.63 287.729 584.908 286.887Z" fill="white"/>
<path d="M502.838 271.243C505.626 269.05 505.838 269.052 508.696 271.3C511.409 273.434 511.574 275.442 509.647 282.88C508.893 285.79 508.524 288.418 508.827 288.723C509.131 289.026 512.159 289.744 515.556 290.316C522.501 291.486 525.115 293.276 525.115 296.862C525.114 302.094 520.956 303.663 512.368 301.672C509.061 300.905 506.199 300.433 506.007 300.624C505.817 300.814 504.724 304.473 503.582 308.755C501.253 317.473 499.087 320.193 495.213 319.262C492.584 318.629 490.752 316.537 490.752 314.167C490.752 313.251 491.566 309.316 492.56 305.423C493.553 301.531 494.247 298.234 494.101 298.097C493.955 297.959 490.465 297.217 486.346 296.446C478.514 294.98 476.654 293.745 476.654 290.011C476.654 287.544 479.551 284.453 481.863 284.452C482.79 284.452 486.656 285.047 490.455 285.773C494.247 286.499 497.391 287.094 497.453 287.096C497.504 287.096 498.23 283.927 499.067 280.054C500.24 274.623 501.103 272.607 502.838 271.243Z" fill="white"/>
<path fill-rule="evenodd" clip-rule="evenodd" d="M553.301 280.267C558.82 276.511 567.017 278.567 570.203 284.506C577.103 297.372 559.423 309.949 549.295 299.379C547.085 297.071 546.702 295.976 546.702 291.949C546.702 286.639 548.427 283.584 553.301 280.267ZM558.548 287.977C557.671 287.977 556.687 288.813 556.363 289.837C555.177 293.572 560.397 295.601 561.799 291.951C562.461 290.225 560.621 287.977 558.548 287.977Z" fill="white"/>
<path fill-rule="evenodd" clip-rule="evenodd" d="M555.943 165.724C558.028 162.305 561.958 161.816 564.765 164.623C566.708 166.567 566.858 167.86 565.711 172.798C564.972 175.981 565.061 176.178 567.716 177.318C578.621 182 584.944 193.685 579.394 198.9C576.048 202.043 572.712 201.156 570.268 196.474C568.031 192.192 564.959 189.223 563.084 189.531C562.286 189.661 561.029 193.074 559.558 199.094L557.272 208.454L561.89 210.872C569.769 214.997 574.436 221.733 574.451 229.003C574.461 233.571 571.777 240.189 568.325 244.111C564.334 248.645 558.019 251.743 551.761 252.236L547.585 252.565L546.262 257.127C544.856 261.978 542.755 264.187 539.548 264.187C536.814 264.187 533.676 260.018 534.36 257.294C536.097 250.371 536.135 250.499 531.837 248.858C526.744 246.913 519.254 238.963 518.443 234.642C517.614 230.222 518.619 227.396 521.56 225.875C525.825 223.669 527.492 224.13 528.673 227.842C529.766 231.278 536.134 238.635 538.015 238.635C539.248 238.635 539.351 238.341 541.83 227.621C542.839 223.26 543.856 219.072 544.089 218.316C544.371 217.398 543.497 216.455 541.461 215.485C539.782 214.685 536.829 212.602 534.897 210.858C522.39 199.558 529.879 178.199 547.282 175.539C552.721 174.708 554.191 173.739 554.195 170.98C554.197 169.665 554.983 167.299 555.943 165.724ZM558.334 223.877C556.169 221.501 554.474 221.334 553.859 223.436C553.319 225.281 549.785 240.396 549.785 240.862C549.786 241.04 551.074 240.75 552.649 240.217C562.016 237.044 564.312 230.442 558.334 223.877ZM550.769 187.154C550.428 186.943 548.571 187.476 546.644 188.339C543.124 189.916 540.974 192.996 540.974 196.468C540.974 198.761 543.334 202.791 545.452 204.113C546.892 205.013 547.182 204.749 547.959 201.838C550.201 193.439 551.336 187.505 550.769 187.154Z" fill="white"/>
<path fill-rule="evenodd" clip-rule="evenodd" d="M292.726 108.713C298.741 107.093 302.289 107.088 309.07 108.687C316.244 110.378 318.582 111.637 324.378 116.934C337.802 129.204 338.951 148.763 327.188 164.788C311.708 185.876 280.119 184.128 268.485 161.539C266.21 157.123 265.697 154.97 265.366 148.47C264.361 128.774 274.855 113.525 292.726 108.713ZM312.997 128.819C308.156 125.272 300.877 124.058 295.035 125.825C286.236 128.487 279.391 138.602 280.39 147.466C281.557 157.812 288.89 164.599 298.922 164.615C310.939 164.635 319.753 156.062 319.8 144.31C319.823 138.533 316.771 131.587 312.997 128.819Z" fill="white"/>
<path d="M300.114 48.3725C303.441 47.9099 311.911 47.692 318.938 47.8885C339.12 48.4532 354.286 53.0584 369.951 63.3787C386.796 74.4761 399.3 90.3969 405.839 109.073L407.857 114.841L401.946 115.522C395.626 116.25 387.17 119.719 381.876 123.758C380.14 125.082 376.892 128.771 374.656 131.957C372.422 135.143 370.485 137.898 370.353 138.08C370.22 138.262 368.441 137.741 366.398 136.924C362.222 135.253 353.213 134.954 349.507 136.362C347.672 137.06 346.999 137.02 346.782 136.198C346.622 135.597 346.031 133.123 345.467 130.7C342.872 119.553 335.101 109.063 325.081 103.182C319.394 99.8464 308.21 96.7721 301.836 96.7932C283.569 96.8558 267.108 107.426 259.255 124.139C256.527 129.942 255.628 131.132 254.178 130.851C251.979 130.425 209.35 118.584 208.948 118.288C208.31 117.817 215.331 104.91 219.645 98.6235C224.904 90.9597 240.445 74.8867 247.569 69.7436C263.187 58.4673 281.721 50.9295 300.114 48.3725Z" fill="white"/>
</g>
<defs>
<clipPath id="clip0_21442_366">
<rect width="649.35" height="649.35" fill="white"/>
</clipPath>
</defs>
</svg>
